<?xml version="1.0" standalone="no"?>
<!DOCTYPE svg PUBLIC "-//W3C//DTD SVG 20010904//EN" "http://www.w3.org/TR/2001/REC-SVG-20010904/DTD/svg10.dtd">
<!-- Created using Krita: https://krita.org -->
<svg width="172.152pt"
    height="117.144pt"
    viewBox="0 0 172.152 117.144">
<defs/>
<g id="layer1" transform="matrix(2.83465054725536 0 0 2.83465054725536 -112.716553419872 -258.725454987428)" fill="none">
  <g id="g47799" transform="matrix(3.5752989 0 0 3.5752989 -115.28023 -247.93031)" fill="none">
   <path id="path750326" transform="translate(46.060967, 96.633821)" fill="#000000" stroke="#000000" stroke-width="0.1" stroke-linecap="butt" stroke-linejoin="miter" stroke-miterlimit="4" d="M5.33278 3.79779L5.81542 4.39709L7.14648 4.39409L8.32139 3.71919L9.1574 3.77039L10.407 4.40827L11.8126 4.40127L12.3598 3.89546L12.8333 4.24453L12.4547 6.4297L9.05221 8.34771L4.88955 8.14701L2.81397 7.20964L0.770243 5.0426L0 3.49071L2.26264 2.63731L3.14221 0.960787L3.0208 0L4.9773 0.311812L5.43553 1.95137Z" sodipodiNodetypes="ccccccccccccccccccccc"/>
   <path id="path757131" transform="translate(51.840477, 96.793296)" fill="#000000" stroke="#000000" stroke-width="0.1" stroke-linecap="butt" stroke-linejoin="miter" stroke-miterlimit="4" d="M0 0.292208L1.5795 0L3.94876 0.386983L5.44433 1.64675L5.70902 2.37987L4.92445 2.49427L3.8066 1.75302L2.42454 1.9428L1.13724 3.23009L0.41067 3.18269L0.50657 1.60454Z" sodipodiNodetypes="cccccccccccc"/>
   <path id="path763543" transform="translate(44.827109, 96.328513)" fill="#000000" stroke="#000000" stroke-width="0.1" stroke-linecap="butt" stroke-linejoin="miter" stroke-miterlimit="4" d="M3.03678 0.381325L3.14057 1.13019L2.69789 1.99888L1.11846 2.85042L0 1.99234L1.00407 0Z" sodipodiNodetypes="ccccccc"/>
  </g><text id="text47185" kritaUseRichText="true" kritaTextVersion="2" transform="matrix(0.26458333 0 0 0.26458333 -1.4210854715202e-14 0)" fill="#000000" stroke-opacity="0" stroke="#000000" stroke-width="0" stroke-linecap="square" stroke-linejoin="bevel" font-family="Franklin Gothic Medium" font-size="16"></text>
 </g><g id="layer2" transform="matrix(2.83465054725536 0 0 2.83465054725536 6.21594593576447e-06 0)" display="none" fill="none">
  <g id="g47807" transform="matrix(3.575299 0 0 3.575299 -155.04406 -339.20274)" fill="none"><text id="text4145" kritaUseRichText="true" kritaTextVersion="2" fill="#000000" stroke-opacity="0" stroke="#000000" stroke-width="0" stroke-linecap="square" stroke-linejoin="bevel" font-family="Franklin Gothic Medium" font-size="5.64444" font-stretch="normal"><tspan x="59.738518" y="100.22538">The</tspan><tspan x="59.738518" y="105.02316"></tspan></text><text id="text35431" kritaUseRichText="true" kritaTextVersion="2" fill="#000000" stroke-opacity="0" stroke="#000000" stroke-width="0" stroke-linecap="square" stroke-linejoin="bevel" font-family="Franklin Gothic Book" font-size="5.64444" font-stretch="normal"><tspan x="60.329056" y="104.61954" font-family="Franklin Gothic Medium">Lobster</tspan><tspan x="60.329056" y="111.67509"></tspan></text>
  </g>
 </g>
</svg>
