<?xml version="1.0" encoding="UTF-8" standalone="no"?>
<!-- Created with Inkscape (http://www.inkscape.org/) -->

<svg
   width="129.64085mm"
   height="41.318645mm"
   viewBox="0 0 129.64085 41.318645"
   version="1.1"
   id="svg5"
   inkscape:version="1.1.2 (b8e25be833, 2022-02-05)"
   sodipodi:docname="Logo_Text_Path.svg"
   inkscape:export-filename="C:\Users\Brandon\Desktop\Logo_Text_Path.png"
   inkscape:export-xdpi="1600"
   inkscape:export-ydpi="1600"
   xmlns:inkscape="http://www.inkscape.org/namespaces/inkscape"
   xmlns:sodipodi="http://sodipodi.sourceforge.net/DTD/sodipodi-0.dtd"
   xmlns="http://www.w3.org/2000/svg"
   xmlns:svg="http://www.w3.org/2000/svg">
  <sodipodi:namedview
     id="namedview7"
     pagecolor="#505050"
     bordercolor="#eeeeee"
     borderopacity="1"
     inkscape:pageshadow="0"
     inkscape:pageopacity="0"
     inkscape:pagecheckerboard="0"
     inkscape:document-units="mm"
     showgrid="true"
     inkscape:zoom="45.254834"
     inkscape:cx="240.97978"
     inkscape:cy="73.693785"
     inkscape:window-width="1920"
     inkscape:window-height="1017"
     inkscape:window-x="-8"
     inkscape:window-y="-8"
     inkscape:window-maximized="1"
     inkscape:current-layer="g47807"
     fit-margin-left="5"
     fit-margin-top="5"
     fit-margin-bottom="5"
     fit-margin-right="5">
    <inkscape:grid
       type="xygrid"
       id="grid851" />
  </sodipodi:namedview>
  <defs
     id="defs2">
    <rect
       x="223.55838"
       y="408.61877"
       width="48.629013"
       height="54.369938"
       id="rect47187" />
    <inkscape:path-effect
       effect="skeletal"
       id="path-effect743125"
       is_visible="true"
       lpeversion="1"
       pattern="M 0,4.9921382 C 0,2.2364779 2.2364779,0 4.9921382,0 c 2.7556604,0 4.9921383,2.2364779 4.9921383,4.9921382 0,2.7556604 -2.2364779,4.9921383 -4.9921383,4.9921383 C 2.2364779,9.9842765 0,7.7477986 0,4.9921382 Z"
       copytype="single_stretched"
       prop_scale="1"
       scale_y_rel="false"
       spacing="0"
       normal_offset="0"
       tang_offset="0"
       prop_units="false"
       vertical_pattern="false"
       hide_knot="false"
       fuse_tolerance="0" />
    <inkscape:path-effect
       effect="bspline"
       id="path-effect5298"
       is_visible="true"
       lpeversion="1"
       weight="33.333333"
       steps="2"
       helper_size="0"
       apply_no_weight="true"
       apply_with_weight="true"
       only_selected="false" />
    <inkscape:path-effect
       effect="bspline"
       id="path-effect3472"
       is_visible="true"
       lpeversion="1"
       weight="33.333333"
       steps="2"
       helper_size="0"
       apply_no_weight="true"
       apply_with_weight="true"
       only_selected="false" />
    <inkscape:path-effect
       effect="spiro"
       id="path-effect1148"
       is_visible="true"
       lpeversion="1" />
  </defs>
  <g
     inkscape:label="Layer 1"
     inkscape:groupmode="layer"
     id="layer1"
     style="display:inline"
     transform="translate(-39.763829,-91.272434)">
    <g
       id="g47799"
       transform="matrix(3.5752989,0,0,3.5752989,-115.28023,-247.93031)">
      <path
         style="fill:#000000;fill-opacity:1;stroke:#000000;stroke-width:0.1;stroke-linecap:butt;stroke-linejoin:miter;stroke-miterlimit:4;stroke-dasharray:none;stroke-opacity:1"
         d="m 51.393749,100.43161 0.482639,0.5993 1.331058,-0.003 1.17491,-0.6749 0.836014,0.0512 1.249586,0.63788 1.405562,-0.007 0.547254,-0.50581 0.473542,0.34907 -0.378661,2.18517 -3.402476,1.91801 -4.162657,-0.2007 -2.075586,-0.93737 -2.043724,-2.16704 -0.770243,-1.55189 2.262639,-0.853403 0.879567,-1.676519 -0.121406,-0.960787 1.9565,0.311812 0.458226,1.639559 z"
         id="path750326"
         sodipodi:nodetypes="ccccccccccccccccccccc" />
      <path
         style="fill:#000000;fill-opacity:1;stroke:#000000;stroke-width:0.1;stroke-linecap:butt;stroke-linejoin:miter;stroke-miterlimit:4;stroke-dasharray:none;stroke-opacity:1"
         d="m 51.840477,97.085504 1.579504,-0.292208 2.369254,0.386983 1.495575,1.259769 0.264682,0.733115 -0.784565,0.114403 -1.117847,-0.741246 -1.382066,0.189774 -1.287295,1.287296 -0.726572,-0.0474 0.0959,-1.578151 z"
         id="path757131"
         sodipodi:nodetypes="cccccccccccc" />
      <path
         style="fill:#000000;fill-opacity:1;stroke:#000000;stroke-width:0.1;stroke-linecap:butt;stroke-linejoin:miter;stroke-miterlimit:4;stroke-dasharray:none;stroke-opacity:1"
         d="m 47.863892,96.709838 0.103791,0.748869 -0.442685,0.868687 -1.579425,0.851539 -1.118464,-0.85808 1.004067,-1.99234 z"
         id="path763543"
         sodipodi:nodetypes="ccccccc" />
    </g>
    <g
       id="g47807"
       transform="matrix(3.5752989,0,0,3.5752989,-115.28023,-247.93031)">
      <g
         aria-label="The  "
         id="text4145"
         style="font-size:5.64444px;line-height:0.85;font-family:'Franklin Gothic Medium';-inkscape-font-specification:'Franklin Gothic Medium, ';stroke-width:0.347889"
         transform="translate(-0.03158734,0.12480629)">
        <path
           d="m 62.992343,96.739524 h -1.308545 v 3.485856 h -0.526116 v -3.485856 h -1.297753 v -0.469458 h 3.132414 z"
           style="font-size:5.52557px;font-family:'Microsoft Sans Serif';-inkscape-font-specification:'Microsoft Sans Serif'"
           id="path981" />
        <path
           d="m 63.998709,97.727003 q 0.380422,-0.428987 0.855276,-0.428987 0.968593,0 0.968593,1.05493 v 1.872434 H 65.31265 v -1.850849 q 0,-0.350744 -0.126808,-0.504532 -0.124109,-0.153788 -0.4101,-0.153788 -0.388517,0 -0.777033,0.458665 v 2.050504 h -0.509928 v -3.955314 h 0.509928 z"
           style="font-size:5.52557px;font-family:'Microsoft Sans Serif';-inkscape-font-specification:'Microsoft Sans Serif'"
           id="path983" />
        <path
           d="m 67.77865,100.29283 q -0.631339,0 -1.014459,-0.393912 -0.383121,-0.39661 -0.383121,-1.103494 0,-0.701489 0.36963,-1.098099 0.372329,-0.399309 0.971292,-0.399309 0.612453,0 0.976687,0.391215 0.366932,0.391214 0.366932,1.106193 v 0.121411 h -2.155727 q 0.03238,0.496438 0.272501,0.736562 0.242823,0.240125 0.596265,0.240125 0.267105,0 0.48025,-0.134901 0.215842,-0.1376 0.226634,-0.388517 h 0.526116 q -0.05936,0.442477 -0.402006,0.682606 -0.339952,0.24012 -0.830994,0.24012 z m 0.750053,-1.775304 q -0.06205,-0.412798 -0.277897,-0.617849 -0.215843,-0.20505 -0.528814,-0.20505 -0.304878,0 -0.523418,0.20505 -0.218541,0.202353 -0.277898,0.617849 z"
           style="font-size:5.52557px;font-family:'Microsoft Sans Serif';-inkscape-font-specification:'Microsoft Sans Serif'"
           id="path985" />
      </g>
      <g
         aria-label="Lobster "
         id="text35431"
         style="font-size:5.52557px;line-height:1.25;font-family:'Microsoft Sans Serif';-inkscape-font-specification:'Microsoft Sans Serif';stroke-width:0.264583"
         transform="translate(-0.03643734,0.11894511)">
        <path
           d="m 63.609647,104.63058 h -2.447115 v -3.95532 h 0.523418 v 3.48586 h 1.923697 z"
           id="path988" />
        <path
           d="m 65.328294,101.70321 q 0.612453,0 0.976687,0.39122 0.366933,0.39121 0.366933,1.10619 0,0.71228 -0.366933,1.10619 -0.364234,0.39122 -0.976687,0.39122 -0.609756,0 -0.976688,-0.39122 -0.364234,-0.39391 -0.364234,-1.10619 0,-0.71498 0.364234,-1.10619 0.366932,-0.39122 0.976688,-0.39122 z m 0,2.59551 q 0.364234,0 0.590869,-0.2752 0.226634,-0.2779 0.226634,-0.8229 0,-0.5477 -0.226634,-0.8229 -0.226635,-0.2779 -0.590869,-0.2779 -0.364235,0 -0.59087,0.2779 -0.226634,0.2752 -0.226634,0.8229 0,0.545 0.226634,0.8229 0.226635,0.2752 0.59087,0.2752 z"
           id="path990" />
        <path
           d="m 67.751126,102.11062 q 0.339952,-0.40741 0.817504,-0.40741 0.561191,0 0.868767,0.39931 0.307575,0.39661 0.307575,1.07382 0,0.70418 -0.345348,1.11429 -0.34265,0.4074 -0.866068,0.4074 -0.464062,0 -0.78243,-0.28869 v 0.22124 h -0.509928 v -3.95532 h 0.509928 z m 0,1.84005 q 0.326462,0.34805 0.750053,0.34805 0.32916,0 0.523419,-0.2806 0.194258,-0.28329 0.194258,-0.84178 0,-0.52882 -0.183466,-0.80132 -0.183466,-0.2752 -0.512626,-0.2752 -0.423591,0 -0.771638,0.49104 z"
           id="path992" />
        <path
           d="m 71.336811,104.69803 q -1.173644,0 -1.227605,-0.92273 h 0.509928 q 0.0054,0.52342 0.712281,0.52342 0.315669,0 0.480249,-0.12951 0.167278,-0.1322 0.167278,-0.32916 0,-0.19425 -0.161882,-0.2725 -0.161882,-0.0809 -0.669112,-0.20775 -0.504532,-0.1268 -0.73926,-0.28329 -0.232031,-0.15649 -0.232031,-0.5504 0,-0.35614 0.288689,-0.58817 0.291388,-0.23473 0.777034,-0.23473 1.125079,0 1.149361,0.80132 h -0.50723 q -0.02698,-0.40471 -0.607057,-0.40471 -0.256313,0 -0.426289,0.0971 -0.167278,0.0971 -0.167278,0.2833 0,0.16727 0.129505,0.24282 0.129506,0.0728 0.647528,0.19965 0.52072,0.12411 0.771637,0.29139 0.253615,0.16728 0.253615,0.57738 0,0.39121 -0.312971,0.65022 -0.310274,0.25632 -0.83639,0.25632 z"
           id="path994" />
        <path
           d="m 74.188631,104.63597 q -0.167278,0.0324 -0.364235,0.0324 -0.312971,0 -0.458665,-0.11062 -0.145694,-0.11332 -0.180768,-0.28869 -0.03507,-0.17537 -0.03507,-0.47755 v -1.62422 h -0.353442 v -0.39931 h 0.353442 v -0.71228 h 0.50723 v 0.71228 h 0.464062 v 0.39931 h -0.464062 v 1.6512 q 0,0.29408 0.07285,0.37503 0.07554,0.0782 0.205051,0.0782 0.132203,0 0.253615,-0.0216 z"
           id="path996" />
        <path
           d="m 75.829035,104.69803 q -0.63134,0 -1.01446,-0.39391 -0.383121,-0.39662 -0.383121,-1.1035 0,-0.70149 0.369631,-1.0981 0.372328,-0.39931 0.971291,-0.39931 0.612454,0 0.976688,0.39122 0.366932,0.39121 0.366932,1.10619 v 0.12141 h -2.155727 q 0.03238,0.49644 0.272501,0.73656 0.242823,0.24013 0.596265,0.24013 0.267105,0 0.48025,-0.1349 0.215842,-0.1376 0.226634,-0.38852 h 0.526117 q -0.05936,0.44248 -0.402007,0.6826 -0.339952,0.24013 -0.830994,0.24013 z m 0.750053,-1.77531 q -0.06206,-0.4128 -0.277897,-0.61785 -0.215843,-0.20505 -0.528815,-0.20505 -0.304877,0 -0.523418,0.20505 -0.218541,0.20236 -0.277897,0.61785 z"
           id="path998" />
        <path
           d="m 79.171897,102.23203 q -0.107921,-0.0324 -0.310273,-0.0324 -0.388517,0 -0.666414,0.4074 v 2.02353 h -0.509928 v -2.86262 h 0.509928 v 0.39931 q 0.321065,-0.46406 0.744656,-0.46406 0.107922,0 0.232031,0.0216 z"
           id="path1000" />
      </g>
    </g>
    <text
       xml:space="preserve"
       transform="scale(0.26458333)"
       id="text47185"
       style="font-size:16px;line-height:1.25;font-family:'Franklin Gothic Medium';-inkscape-font-specification:'Franklin Gothic Medium, ';white-space:pre;shape-inside:url(#rect47187)" />
  </g>
</svg>
